<svg width="30" height="31" viewBox="0 0 30 31" fill="none" xmlns="http://www.w3.org/2000/svg">
<g clip-path="url(#clip0_301_414)">
<path d="M11.7024 17.9136L10.3213 18.8099C9.93721 18.5165 9.39705 18.4771 8.96854 18.7536L0.536921 24.2239C-0.00875998 24.5783 -0.164387 25.3074 0.18997 25.8531L0.751175 26.7173C1.10506 27.263 1.83426 27.4196 2.38081 27.0652L10.812 21.5968C11.2396 21.3185 11.4231 20.8094 11.3124 20.3388L12.6926 19.4434C15.7574 23.3391 21.3412 24.325 25.5801 21.5753C30.0718 18.6615 31.3516 12.657 28.4375 8.16538C25.5242 3.67283 19.5202 2.39385 15.0277 5.30711C10.7997 8.05191 9.41856 13.5322 11.7024 17.9136ZM1.22594 25.7043C0.969132 25.3083 1.08126 24.7796 1.47636 24.5238C1.87185 24.2679 2.39964 24.3805 2.65653 24.776C2.91239 25.1697 2.79978 25.6984 2.40429 25.9543C2.01054 26.2115 1.4818 26.0989 1.22594 25.7043Z" fill="#4461FA"/>
</g>
<defs>
<clipPath id="clip0_301_414">
<rect width="30" height="30" fill="white" transform="translate(0 30.5) rotate(-90)"/>
</clipPath>
</defs>
</svg>
