<svg width="14" height="15" viewBox="0 0 14 15" fill="none" xmlns="http://www.w3.org/2000/svg">
<path d="M7.86375 14.4824H7.83292C7.55552 14.4516 7.33976 14.2667 7.24729 14.0201L5.73697 8.74938L0.466252 7.23906C0.219668 7.17741 0.034731 6.93083 0.00390812 6.65343C-0.0269148 6.37602 0.1272 6.12944 0.373783 6.03697L13.1036 0.550493C13.3502 0.458024 13.6276 0.488847 13.8126 0.673784C13.9975 0.858722 14.0591 1.13613 13.9359 1.38271L8.44938 14.0817C8.35691 14.3283 8.11033 14.4824 7.86375 14.4824ZM2.53139 6.49931L6.44589 7.60894C6.66165 7.67058 6.81577 7.8247 6.87741 8.04046L7.98704 11.955L12.1481 2.36904L2.53139 6.49931Z" fill="#4461FA"/>
<path d="M8 14L6 8L1.5 6.5L13.5 1.5L8 14Z" fill="#4461FA"/>
</svg>
