<svg width="50" height="50" viewBox="0 0 50 50" fill="none" xmlns="http://www.w3.org/2000/svg">
<circle cx="25" cy="25" r="25" fill="#EEEEEE"/>
<g clip-path="url(#clip0_230_833)">
<mask id="path-2-inside-1_230_833" fill="white">
<path d="M39.8945 23.0039L38.1182 19.2927L38.8945 17.6707C39.0869 17.2683 39.0117 16.7827 38.707 16.465L37.707 15.4204C37.4014 15.1026 36.9375 15.0261 36.5527 15.2245L34.5527 16.2691C34.457 16.3196 34.3691 16.3854 34.293 16.465L32.4072 18.4343L29.4473 19.9803L28.8945 18.8255C28.7246 18.4715 28.3789 18.2481 28 18.2481H26C25.8027 18.2481 25.6094 18.3093 25.4453 18.4236L22.8135 20.2562L20.4521 19.6396L20.8945 18.7153C21.1416 18.1992 20.9414 17.5718 20.4473 17.3137L18.4473 16.2691C18.1084 16.0931 17.7031 16.1309 17.4004 16.3681L13.4717 19.4452L11.5527 20.4475C11.2139 20.6245 11 20.9861 11 21.3819V23.4711C10.4473 23.4711 10 23.9388 10 24.5157V26.6049C10 26.8109 10.0586 27.0129 10.168 27.1843L12.168 30.3181C12.3418 30.5899 12.627 30.7618 12.9395 30.7812C13.2529 30.8026 13.5547 30.667 13.7588 30.4186L14.7373 29.2266C14.791 29.1618 14.8359 29.0904 14.873 29.0139L15.2158 28.2978C15.2393 28.3294 15.2656 28.3595 15.293 28.388L16.293 29.4326C16.5986 29.7514 17.0625 29.8289 17.4473 29.6285L18.8027 28.9205L20 30.1712V31.8279C20 32.2237 20.2139 32.5853 20.5527 32.7623L22.5527 33.8069C22.6914 33.8793 22.8447 33.917 23 33.917H28C28.1553 33.917 28.3086 33.8793 28.4473 33.8069L30.4473 32.7623C30.6406 32.6613 30.7979 32.497 30.8945 32.2951L31.2744 31.5019L33 33.305V33.917C33 34.4939 33.4473 34.9616 34 34.9616H35C35.5527 34.9616 36 34.4939 36 33.917V33.0418L36.9482 30.0692C37.0684 29.6938 36.9746 29.2796 36.707 29.0001L35.2168 27.4434L35.8145 26.1938L36.0518 26.9354C36.1348 27.1981 36.3154 27.4154 36.5527 27.5393L38.5527 28.5839C38.8633 28.7446 39.2305 28.7288 39.5254 28.538C39.8203 28.3477 40 28.0116 40 27.6495V23.4711C40 23.3089 39.9639 23.1487 39.8945 23.0039ZM38 25.9591L37.8174 25.8643L36.9482 23.1406C36.8203 22.7402 36.4746 22.4591 36.0713 22.4291C35.6553 22.4071 35.2861 22.6264 35.1055 23.0039L33.1055 27.1823C32.9131 27.5847 32.9883 28.0703 33.293 28.388L34.8555 30.0207L34.3125 31.7223L31.707 29.0001C31.4805 28.7634 31.1611 28.6553 30.8398 28.7073C30.5225 28.7614 30.249 28.971 30.1055 29.2715L29.2549 31.0495L27.7637 31.8279H23.2363L22 31.1821V29.7387C22 29.4617 21.8945 29.196 21.707 29.0001L19.707 26.9109C19.4014 26.5926 18.9375 26.5156 18.5527 26.7151L17.1973 27.423L17 27.2169V26.6049C17 26.0831 16.6318 25.6414 16.1367 25.57L15.1152 25.4226C14.6855 25.3634 14.2754 25.5909 14.084 25.9903L13.1396 27.9642L13.0996 28.0121L12 26.2886V25.5603C12.5527 25.5603 13 25.0926 13 24.5157V22.0276L14.4473 21.2717C14.501 21.2437 14.5518 21.2105 14.5996 21.1728L18.1055 18.4266L18.6582 18.7153L18.1055 19.8701C17.9697 20.1537 17.9648 20.4857 18.0918 20.7739C18.2178 21.0616 18.4629 21.2738 18.7578 21.3508L22.7578 22.3954C23.0303 22.4653 23.3193 22.4137 23.5547 22.251L26.3027 20.3373H27.3818L28.1055 21.8491C28.3535 22.3658 28.9531 22.5744 29.4473 22.3163L33.4473 20.2271C33.543 20.1766 33.6309 20.1108 33.707 20.0313L35.5928 18.062L36.7637 17.4499L36.1055 18.8255C35.9648 19.1198 35.9648 19.4656 36.1055 19.7599L38 23.7175V25.9591Z"/>
</mask>
<path d="M39.8945 23.0039L38.1182 19.2927L38.8945 17.6707C39.0869 17.2683 39.0117 16.7827 38.707 16.465L37.707 15.4204C37.4014 15.1026 36.9375 15.0261 36.5527 15.2245L34.5527 16.2691C34.457 16.3196 34.3691 16.3854 34.293 16.465L32.4072 18.4343L29.4473 19.9803L28.8945 18.8255C28.7246 18.4715 28.3789 18.2481 28 18.2481H26C25.8027 18.2481 25.6094 18.3093 25.4453 18.4236L22.8135 20.2562L20.4521 19.6396L20.8945 18.7153C21.1416 18.1992 20.9414 17.5718 20.4473 17.3137L18.4473 16.2691C18.1084 16.0931 17.7031 16.1309 17.4004 16.3681L13.4717 19.4452L11.5527 20.4475C11.2139 20.6245 11 20.9861 11 21.3819V23.4711C10.4473 23.4711 10 23.9388 10 24.5157V26.6049C10 26.8109 10.0586 27.0129 10.168 27.1843L12.168 30.3181C12.3418 30.5899 12.627 30.7618 12.9395 30.7812C13.2529 30.8026 13.5547 30.667 13.7588 30.4186L14.7373 29.2266C14.791 29.1618 14.8359 29.0904 14.873 29.0139L15.2158 28.2978C15.2393 28.3294 15.2656 28.3595 15.293 28.388L16.293 29.4326C16.5986 29.7514 17.0625 29.8289 17.4473 29.6285L18.8027 28.9205L20 30.1712V31.8279C20 32.2237 20.2139 32.5853 20.5527 32.7623L22.5527 33.8069C22.6914 33.8793 22.8447 33.917 23 33.917H28C28.1553 33.917 28.3086 33.8793 28.4473 33.8069L30.4473 32.7623C30.6406 32.6613 30.7979 32.497 30.8945 32.2951L31.2744 31.5019L33 33.305V33.917C33 34.4939 33.4473 34.9616 34 34.9616H35C35.5527 34.9616 36 34.4939 36 33.917V33.0418L36.9482 30.0692C37.0684 29.6938 36.9746 29.2796 36.707 29.0001L35.2168 27.4434L35.8145 26.1938L36.0518 26.9354C36.1348 27.1981 36.3154 27.4154 36.5527 27.5393L38.5527 28.5839C38.8633 28.7446 39.2305 28.7288 39.5254 28.538C39.8203 28.3477 40 28.0116 40 27.6495V23.4711C40 23.3089 39.9639 23.1487 39.8945 23.0039ZM38 25.9591L37.8174 25.8643L36.9482 23.1406C36.8203 22.7402 36.4746 22.4591 36.0713 22.4291C35.6553 22.4071 35.2861 22.6264 35.1055 23.0039L33.1055 27.1823C32.9131 27.5847 32.9883 28.0703 33.293 28.388L34.8555 30.0207L34.3125 31.7223L31.707 29.0001C31.4805 28.7634 31.1611 28.6553 30.8398 28.7073C30.5225 28.7614 30.249 28.971 30.1055 29.2715L29.2549 31.0495L27.7637 31.8279H23.2363L22 31.1821V29.7387C22 29.4617 21.8945 29.196 21.707 29.0001L19.707 26.9109C19.4014 26.5926 18.9375 26.5156 18.5527 26.7151L17.1973 27.423L17 27.2169V26.6049C17 26.0831 16.6318 25.6414 16.1367 25.57L15.1152 25.4226C14.6855 25.3634 14.2754 25.5909 14.084 25.9903L13.1396 27.9642L13.0996 28.0121L12 26.2886V25.5603C12.5527 25.5603 13 25.0926 13 24.5157V22.0276L14.4473 21.2717C14.501 21.2437 14.5518 21.2105 14.5996 21.1728L18.1055 18.4266L18.6582 18.7153L18.1055 19.8701C17.9697 20.1537 17.9648 20.4857 18.0918 20.7739C18.2178 21.0616 18.4629 21.2738 18.7578 21.3508L22.7578 22.3954C23.0303 22.4653 23.3193 22.4137 23.5547 22.251L26.3027 20.3373H27.3818L28.1055 21.8491C28.3535 22.3658 28.9531 22.5744 29.4473 22.3163L33.4473 20.2271C33.543 20.1766 33.6309 20.1108 33.707 20.0313L35.5928 18.062L36.7637 17.4499L36.1055 18.8255C35.9648 19.1198 35.9648 19.4656 36.1055 19.7599L38 23.7175V25.9591Z" fill="#4461FA" stroke="#EEEEEE" stroke-width="0.6" mask="url(#path-2-inside-1_230_833)"/>
</g>
<defs>
<clipPath id="clip0_230_833">
<rect width="30" height="19.5" fill="white" transform="translate(10 15.25)"/>
</clipPath>
</defs>
</svg>
