<svg width="51" height="50" viewBox="0 0 51 50" fill="none" xmlns="http://www.w3.org/2000/svg">
<circle cx="25.6666" cy="25" r="25" fill="#EEEEEE"/>
<g clip-path="url(#clip0_404_336)">
<rect x="11.4166" y="32.75" width="28.5" height="6.5" rx="3.25" stroke="#4461FA" stroke-width="1.5"/>
<circle cx="16.6666" cy="36" r="1" fill="#4461FA"/>
<circle cx="22.6666" cy="36" r="1" fill="#4461FA"/>
<circle cx="28.6666" cy="36" r="1" fill="#4461FA"/>
<circle cx="34.6666" cy="36" r="1" fill="#4461FA"/>
<mask id="path-7-inside-1_404_336" fill="white">
<path fill-rule="evenodd" clip-rule="evenodd" d="M24.4167 10.4873C23.8644 10.4873 23.4167 10.935 23.4167 11.4873V13.1214C22.5685 13.4212 21.7982 13.8857 21.144 14.4764L19.7835 13.6909C19.3052 13.4148 18.6936 13.5786 18.4175 14.0569L17.1675 16.222C16.8913 16.7003 17.0552 17.3119 17.5335 17.588L18.9984 18.4338C18.9446 18.7771 18.9167 19.1289 18.9167 19.4873C18.9167 19.9839 18.9703 20.4681 19.0721 20.9342L17.8865 21.6187C17.4082 21.8948 17.2443 22.5064 17.5204 22.9847L18.7704 25.1498C19.0466 25.6281 19.6582 25.792 20.1365 25.5158L21.4492 24.7579C22.0334 25.2259 22.697 25.5989 23.4167 25.8532V27.4873C23.4167 28.0396 23.8644 28.4873 24.4167 28.4873H26.9167C27.469 28.4873 27.9167 28.0396 27.9167 27.4873V25.8532C28.648 25.5947 29.3215 25.2138 29.9125 24.735L31.3899 25.588C31.8682 25.8642 32.4798 25.7003 32.7559 25.222L34.0059 23.0569C34.2821 22.5786 34.1182 21.967 33.6399 21.6909L32.2688 20.8993C32.3657 20.4439 32.4167 19.9716 32.4167 19.4873C32.4167 19.1414 32.3907 18.8017 32.3405 18.4698L33.9929 17.5158C34.4712 17.2397 34.635 16.6281 34.3589 16.1498L33.1089 13.9847C32.8327 13.5064 32.2212 13.3426 31.7429 13.6187L30.2157 14.5004C29.556 13.8982 28.7763 13.4252 27.9167 13.1214V11.4873C27.9167 10.935 27.469 10.4873 26.9167 10.4873H24.4167Z"/>
</mask>
<path d="M23.4167 13.1214L23.9165 14.5357L24.9167 14.1822V13.1214H23.4167ZM21.144 14.4764L20.394 15.7755L21.3393 16.3212L22.1494 15.5896L21.144 14.4764ZM19.7835 13.6909L19.0335 14.9899H19.0335L19.7835 13.6909ZM18.4175 14.0569L19.7165 14.8069V14.8069L18.4175 14.0569ZM17.1675 16.222L18.4665 16.972H18.4665L17.1675 16.222ZM17.5335 17.588L18.2835 16.289L18.2835 16.289L17.5335 17.588ZM18.9984 18.4338L20.4803 18.666L20.6397 17.6493L19.7484 17.1347L18.9984 18.4338ZM19.0721 20.9342L19.8221 22.2332L20.7715 21.6851L20.5376 20.6141L19.0721 20.9342ZM17.8865 21.6187L17.1365 20.3197L17.1365 20.3197L17.8865 21.6187ZM17.5204 22.9847L18.8195 22.2347H18.8195L17.5204 22.9847ZM18.7704 25.1498L17.4714 25.8998L17.4714 25.8998L18.7704 25.1498ZM20.1365 25.5158L20.8865 26.8148H20.8865L20.1365 25.5158ZM21.4492 24.7579L22.3871 23.5873L21.5871 22.9462L20.6992 23.4588L21.4492 24.7579ZM23.4167 25.8532H24.9167V24.7925L23.9165 24.439L23.4167 25.8532ZM27.9167 25.8532L27.4168 24.439L26.4167 24.7925V25.8532H27.9167ZM29.9125 24.735L30.6625 23.436L29.7695 22.9204L28.9683 23.5695L29.9125 24.735ZM31.3899 25.588L32.1399 24.289L32.1399 24.289L31.3899 25.588ZM32.7559 25.222L34.055 25.972V25.972L32.7559 25.222ZM34.0059 23.0569L35.305 23.8069L34.0059 23.0569ZM33.6399 21.6909L32.8899 22.9899L33.6399 21.6909ZM32.2688 20.8993L30.8016 20.587L30.5747 21.6533L31.5188 22.1983L32.2688 20.8993ZM32.3405 18.4698L31.5905 17.1708L30.7044 17.6824L30.8573 18.694L32.3405 18.4698ZM33.9929 17.5158L34.7429 18.8148L33.9929 17.5158ZM34.3589 16.1498L35.6579 15.3998V15.3998L34.3589 16.1498ZM33.1089 13.9847L34.4079 13.2347V13.2347L33.1089 13.9847ZM31.7429 13.6187L32.4929 14.9177L31.7429 13.6187ZM30.2157 14.5004L29.2045 15.6083L30.0152 16.3482L30.9657 15.7994L30.2157 14.5004ZM27.9167 13.1214H26.4167V14.1822L27.4168 14.5357L27.9167 13.1214ZM24.9167 11.4873C24.9167 11.7634 24.6928 11.9873 24.4167 11.9873V8.9873C23.036 8.9873 21.9167 10.1066 21.9167 11.4873H24.9167ZM24.9167 13.1214V11.4873H21.9167V13.1214H24.9167ZM22.1494 15.5896C22.6592 15.1292 23.2585 14.7682 23.9165 14.5357L22.9168 11.7071C21.8786 12.0741 20.9371 12.6421 20.1387 13.3632L22.1494 15.5896ZM19.0335 14.9899L20.394 15.7755L21.894 13.1774L20.5335 12.3919L19.0335 14.9899ZM19.7165 14.8069C19.5784 15.0461 19.2726 15.128 19.0335 14.9899L20.5335 12.3919C19.3378 11.7015 17.8088 12.1112 17.1184 13.3069L19.7165 14.8069ZM18.4665 16.972L19.7165 14.8069L17.1184 13.3069L15.8684 15.472L18.4665 16.972ZM18.2835 16.289C18.5226 16.427 18.6046 16.7328 18.4665 16.972L15.8684 15.472C15.1781 16.6677 15.5878 18.1967 16.7835 18.8871L18.2835 16.289ZM19.7484 17.1347L18.2835 16.289L16.7835 18.8871L18.2484 19.7328L19.7484 17.1347ZM20.4167 19.4873C20.4167 19.207 20.4385 18.9328 20.4803 18.666L17.5165 18.2015C17.4507 18.6214 17.4167 19.0509 17.4167 19.4873H20.4167ZM20.5376 20.6141C20.4586 20.2525 20.4167 19.8756 20.4167 19.4873H17.4167C17.4167 20.0922 17.482 20.6836 17.6066 21.2542L20.5376 20.6141ZM18.6365 22.9177L19.8221 22.2332L18.3221 19.6351L17.1365 20.3197L18.6365 22.9177ZM18.8195 22.2347C18.9575 22.4739 18.8756 22.7797 18.6365 22.9177L17.1365 20.3197C15.9407 21.01 15.531 22.539 16.2214 23.7347L18.8195 22.2347ZM20.0695 24.3998L18.8195 22.2347L16.2214 23.7347L17.4714 25.8998L20.0695 24.3998ZM19.3865 24.2168C19.6256 24.0787 19.9314 24.1606 20.0695 24.3998L17.4714 25.8998C18.1617 27.0955 19.6907 27.5052 20.8865 26.8148L19.3865 24.2168ZM20.6992 23.4588L19.3865 24.2168L20.8865 26.8148L22.1992 26.0569L20.6992 23.4588ZM23.9165 24.439C23.3582 24.2416 22.8422 23.9519 22.3871 23.5873L20.5113 25.9285C21.2246 26.5 22.0359 26.9561 22.9168 27.2675L23.9165 24.439ZM24.9167 27.4873V25.8532H21.9167V27.4873H24.9167ZM24.4167 26.9873C24.6928 26.9873 24.9167 27.2112 24.9167 27.4873H21.9167C21.9167 28.868 23.036 29.9873 24.4167 29.9873V26.9873ZM26.9167 26.9873H24.4167V29.9873H26.9167V26.9873ZM26.4167 27.4873C26.4167 27.2112 26.6405 26.9873 26.9167 26.9873V29.9873C28.2974 29.9873 29.4167 28.868 29.4167 27.4873H26.4167ZM26.4167 25.8532V27.4873H29.4167V25.8532H26.4167ZM28.9683 23.5695C28.5079 23.9424 27.9842 24.2384 27.4168 24.439L28.4165 27.2675C29.3118 26.9511 30.1351 26.4851 30.8567 25.9006L28.9683 23.5695ZM32.1399 24.289L30.6625 23.436L29.1625 26.0341L30.6399 26.8871L32.1399 24.289ZM31.4569 24.472C31.595 24.2328 31.9008 24.1509 32.1399 24.289L30.6399 26.8871C31.8356 27.5774 33.3646 27.1677 34.055 25.972L31.4569 24.472ZM32.7069 22.3069L31.4569 24.472L34.055 25.972L35.305 23.8069L32.7069 22.3069ZM32.8899 22.9899C32.6508 22.8519 32.5688 22.5461 32.7069 22.3069L35.305 23.8069C35.9953 22.6112 35.5856 21.0822 34.3899 20.3919L32.8899 22.9899ZM31.5188 22.1983L32.8899 22.9899L34.3899 20.3919L33.0188 19.6002L31.5188 22.1983ZM30.9167 19.4873C30.9167 19.866 30.8768 20.2337 30.8016 20.587L33.7359 21.2115C33.8545 20.6541 33.9167 20.0771 33.9167 19.4873H30.9167ZM30.8573 18.694C30.8963 18.9519 30.9167 19.2168 30.9167 19.4873H33.9167C33.9167 19.0661 33.885 18.6514 33.8236 18.2456L30.8573 18.694ZM33.2429 16.2168L31.5905 17.1708L33.0905 19.7688L34.7429 18.8148L33.2429 16.2168ZM33.0598 16.8998C32.9218 16.6606 33.0037 16.3548 33.2429 16.2168L34.7429 18.8148C35.9386 18.1245 36.3483 16.5955 35.6579 15.3998L33.0598 16.8998ZM31.8098 14.7347L33.0598 16.8998L35.6579 15.3998L34.4079 13.2347L31.8098 14.7347ZM32.4929 14.9177C32.2537 15.0558 31.9479 14.9739 31.8098 14.7347L34.4079 13.2347C33.7176 12.039 32.1886 11.6293 30.9929 12.3197L32.4929 14.9177ZM30.9657 15.7994L32.4929 14.9177L30.9929 12.3197L29.4657 13.2014L30.9657 15.7994ZM27.4168 14.5357C28.0838 14.7714 28.6903 15.139 29.2045 15.6083L31.2269 13.3925C30.4216 12.6575 29.4688 12.079 28.4165 11.7071L27.4168 14.5357ZM26.4167 11.4873V13.1214H29.4167V11.4873H26.4167ZM26.9167 11.9873C26.6405 11.9873 26.4167 11.7634 26.4167 11.4873H29.4167C29.4167 10.1066 28.2974 8.9873 26.9167 8.9873V11.9873ZM24.4167 11.9873H26.9167V8.9873H24.4167V11.9873Z" fill="#4461FA" mask="url(#path-7-inside-1_404_336)"/>
<circle cx="25.6666" cy="19.4873" r="2.625" stroke="#4461FA" stroke-width="1.5"/>
</g>
<defs>
<clipPath id="clip0_404_336">
<rect width="30" height="30" fill="white" transform="matrix(-1 0 0 1 40.6666 10)"/>
</clipPath>
</defs>
</svg>
