<svg width="51" height="50" viewBox="0 0 51 50" fill="none" xmlns="http://www.w3.org/2000/svg">
<circle cx="25.3334" cy="25" r="25" fill="#EEEEEE"/>
<mask id="path-2-inside-1_404_92" fill="white">
<path d="M12.0828 25C11.6689 25 11.3313 25.3358 11.3534 25.7491C11.5151 28.7673 12.6502 31.6599 14.5992 33.9876C16.7089 36.5073 19.6378 38.2046 22.873 38.7821C26.1081 39.3597 29.4434 38.7807 32.2946 37.1466C35.1459 35.5126 37.3314 32.9276 38.4686 29.8442C39.6057 26.7609 39.6219 23.3759 38.5144 20.2818C37.4068 17.1877 35.2461 14.5819 32.4107 12.9206C29.5752 11.2593 26.2456 10.6484 23.0051 11.195C20.0114 11.6999 17.27 13.1628 15.1874 15.3533C14.9022 15.6532 14.9409 16.1278 15.2557 16.3966C15.5705 16.6653 16.042 16.6262 16.3291 16.3281C18.1818 14.4042 20.6077 13.1193 23.2543 12.6729C26.148 12.1849 29.121 12.7304 31.653 14.2138C34.1849 15.6972 36.1143 18.0241 37.1032 20.7869C38.0922 23.5497 38.0777 26.5724 37.0623 29.3256C36.0469 32.0788 34.0954 34.3871 31.5494 35.8462C29.0033 37.3054 26.0252 37.8223 23.1364 37.3066C20.2476 36.7909 17.6322 35.2754 15.7484 33.0254C14.0253 30.9675 13.0146 28.4151 12.8547 25.749C12.8299 25.3359 12.4967 25 12.0828 25Z"/>
</mask>
<path d="M12.0828 25C11.6689 25 11.3313 25.3358 11.3534 25.7491C11.5151 28.7673 12.6502 31.6599 14.5992 33.9876C16.7089 36.5073 19.6378 38.2046 22.873 38.7821C26.1081 39.3597 29.4434 38.7807 32.2946 37.1466C35.1459 35.5126 37.3314 32.9276 38.4686 29.8442C39.6057 26.7609 39.6219 23.3759 38.5144 20.2818C37.4068 17.1877 35.2461 14.5819 32.4107 12.9206C29.5752 11.2593 26.2456 10.6484 23.0051 11.195C20.0114 11.6999 17.27 13.1628 15.1874 15.3533C14.9022 15.6532 14.9409 16.1278 15.2557 16.3966C15.5705 16.6653 16.042 16.6262 16.3291 16.3281C18.1818 14.4042 20.6077 13.1193 23.2543 12.6729C26.148 12.1849 29.121 12.7304 31.653 14.2138C34.1849 15.6972 36.1143 18.0241 37.1032 20.7869C38.0922 23.5497 38.0777 26.5724 37.0623 29.3256C36.0469 32.0788 34.0954 34.3871 31.5494 35.8462C29.0033 37.3054 26.0252 37.8223 23.1364 37.3066C20.2476 36.7909 17.6322 35.2754 15.7484 33.0254C14.0253 30.9675 13.0146 28.4151 12.8547 25.749C12.8299 25.3359 12.4967 25 12.0828 25Z" stroke="#4461FA" stroke-width="3" stroke-linejoin="round" mask="url(#path-2-inside-1_404_92)"/>
<path d="M18.8334 21.5333V28.4667L25.3334 31.0667M18.8334 21.5333L25.3334 24.1333M18.8334 21.5333L25.3334 18.9333L31.8334 21.5333M25.3334 24.1333V31.0667M25.3334 24.1333L31.8334 21.5333M25.3334 31.0667L31.8334 28.4667V21.5333" stroke="#4461FA" stroke-width="1.5" stroke-linejoin="round"/>
<path d="M19.3486 16.8712H14.8014V12.324" stroke="#4461FA" stroke-width="1.5" stroke-linecap="round" stroke-linejoin="round"/>
</svg>
