<svg width="20" height="20" viewBox="0 0 20 20" fill="none" xmlns="http://www.w3.org/2000/svg">
<path opacity="0.5" d="M14.774 11.258C14.268 10.7585 13.6364 10.7585 13.1336 11.258C12.7501 11.6383 12.3666 12.0186 11.9896 12.4053C11.8864 12.5116 11.7994 12.5342 11.6737 12.4633C11.4256 12.3279 11.1613 12.2184 10.9229 12.0701C9.81105 11.3708 8.8797 10.4717 8.0547 9.45975C7.64542 8.95702 7.28126 8.41883 7.02666 7.81297C6.9751 7.69051 6.98477 7.60994 7.08467 7.51004C7.46817 7.13943 7.842 6.75916 8.21905 6.37888C8.74435 5.85037 8.74435 5.23161 8.21583 4.69987C7.91612 4.39694 7.61641 4.10046 7.3167 3.79753C7.00733 3.48815 6.70118 3.17555 6.38858 2.8694C5.88262 2.37633 5.25098 2.37633 4.74824 2.87262C4.36152 3.2529 3.99091 3.64284 3.59775 4.01667C3.23359 4.36149 3.0499 4.78366 3.01122 5.27673C2.94999 6.07918 3.14658 6.8365 3.42372 7.57449C3.99091 9.10204 4.85459 10.4588 5.90195 11.7027C7.3167 13.385 9.00538 14.7159 10.9809 15.6763C11.8703 16.1081 12.792 16.4401 13.7943 16.4948C14.4839 16.5335 15.0833 16.3595 15.5635 15.8213C15.8922 15.4539 16.2628 15.1188 16.6109 14.7675C17.1265 14.2454 17.1297 13.6138 16.6173 13.0981C16.005 12.4826 15.3895 11.8703 14.774 11.258Z" fill="#222127"/>
</svg>
